<svg width="97" height="103" viewBox="0 0 97 103" fill="none" xmlns="http://www.w3.org/2000/svg">
<path d="M67.34 38.9559H59.6324V31.2483C59.6324 28.986 57.7997 27.1533 55.5374 27.1533H28.3151C26.0528 27.1533 24.2202 28.986 24.2202 31.2483V70.2732C24.2202 72.5355 26.0528 74.3682 28.3151 74.3682H63.5651L67.3795 78.1825C67.8267 78.6297 68.4274 78.8797 69.0587 78.8797C70.3696 78.8797 71.435 77.8186 71.435 76.5033V43.0509C71.435 40.7886 69.6024 38.9559 67.34 38.9559ZM67.5023 70.431H28.1529V31.0861H55.6953V38.9559H40.1177C37.8554 38.9559 36.0228 40.7886 36.0228 43.0509V58.4706C36.0228 60.7329 37.8554 62.5656 40.1177 62.5656H55.5374C57.7997 62.5656 59.6324 60.7329 59.6324 58.4706V42.8931H67.5023V70.4354V70.431ZM55.6996 42.8887V58.6284H39.9599V42.8887H55.6996Z" fill="black"/>
<path d="M19.2242 40.2025C17.637 39.1985 15.7649 38.6899 13.6648 38.6899C11.5647 38.6899 9.69263 39.1985 8.1055 40.2025C6.51837 41.2065 5.26883 42.6315 4.38319 44.4422C3.50194 46.2485 3.05475 48.3837 3.05475 50.7951C3.05475 53.2065 3.50194 55.3109 4.38319 57.1041C5.26883 58.9061 6.52276 60.3266 8.1055 61.3306C9.69263 62.3346 11.5647 62.8432 13.6648 62.8432C15.7649 62.8432 17.637 62.3346 19.2242 61.3306C20.8113 60.3266 22.0608 58.9061 22.9464 57.1041C23.8277 55.3109 24.2749 53.1889 24.2749 50.7951C24.2749 48.4012 23.8277 46.2441 22.9464 44.4422C22.0608 42.6315 20.8069 41.2065 19.2242 40.2025ZM19.6056 54.9953C19.1321 56.2667 18.3955 57.3058 17.4178 58.0862C16.4445 58.8579 15.1818 59.2524 13.6648 59.2524C12.1478 59.2524 10.8852 58.8622 9.91183 58.0862C8.92974 57.3058 8.19318 56.2667 7.72405 54.9953C7.24616 53.7107 7.00503 52.2989 7.00503 50.7951C7.00503 49.2912 7.24616 47.8751 7.72405 46.5817C8.19756 45.3015 8.93413 44.2493 9.91622 43.4601C10.8895 42.6797 12.1522 42.2807 13.6692 42.2807C15.1862 42.2807 16.4489 42.6753 17.4222 43.4601C18.4043 44.2493 19.1409 45.2971 19.6144 46.5817C20.0923 47.8751 20.3334 49.2956 20.3334 50.7951C20.3334 52.2945 20.0923 53.7107 19.6144 54.9953H19.6056Z" fill="#FFEDDF"/>
<path d="M87.7646 40.2389C86.1774 39.2349 84.3053 38.7263 82.2052 38.7263C80.1051 38.7263 78.233 39.2349 76.6459 40.2389C75.0588 41.2429 73.8092 42.6678 72.9236 44.4786C72.0423 46.2849 71.5952 48.4201 71.5952 50.8315C71.5952 53.2428 72.0423 55.3473 72.9236 57.1405C73.8092 58.9425 75.0632 60.363 76.6459 61.367C78.233 62.371 80.1051 62.8796 82.2052 62.8796C84.3053 62.8796 86.1774 62.371 87.7646 61.367C89.3517 60.363 90.6012 58.9425 91.4869 57.1405C92.3681 55.3473 92.8153 53.2253 92.8153 50.8315C92.8153 48.4376 92.3681 46.2805 91.4869 44.4786C90.6012 42.6678 89.3473 41.2429 87.7646 40.2389ZM88.146 55.0316C87.6725 56.3031 86.9359 57.3422 85.9582 58.1226C84.9849 58.8942 83.7222 59.2888 82.2052 59.2888C80.6883 59.2888 79.4256 58.8986 78.4522 58.1226C77.4701 57.3422 76.7336 56.3031 76.2645 55.0316C75.7866 53.747 75.5454 52.3353 75.5454 50.8315C75.5454 49.3276 75.7866 47.9115 76.2645 46.6181C76.738 45.3379 77.4745 44.2856 78.4566 43.4965C79.4299 42.7161 80.6926 42.3171 82.2096 42.3171C83.7266 42.3171 84.9893 42.7117 85.9626 43.4965C86.9447 44.2856 87.6813 45.3335 88.1548 46.6181C88.6327 47.9115 88.8738 49.332 88.8738 50.8315C88.8738 52.3309 88.6327 53.747 88.1548 55.0316H88.146Z" fill="#FFEDDF"/>
<path d="M53.1694 4.5126C51.5823 3.50858 49.7102 3 47.6101 3C45.51 3 43.6379 3.50858 42.0508 4.5126C40.4636 5.51661 39.2141 6.94151 38.3284 8.75224C37.4472 10.5586 37 12.6938 37 15.1051C37 17.5165 37.4472 19.621 38.3284 21.4142C39.2141 23.2161 40.468 24.6367 42.0508 25.6407C43.6379 26.6447 45.51 27.1533 47.6101 27.1533C49.7102 27.1533 51.5823 26.6447 53.1694 25.6407C54.7565 24.6367 56.0061 23.2161 56.8917 21.4142C57.773 19.621 58.2202 17.499 58.2202 15.1051C58.2202 12.7113 57.773 10.5542 56.8917 8.75224C56.0061 6.94151 54.7522 5.51661 53.1694 4.5126ZM53.5508 19.3053C53.0773 20.5768 52.3408 21.6159 51.3631 22.3963C50.3897 23.1679 49.1271 23.5625 47.6101 23.5625C46.0931 23.5625 44.8304 23.1723 43.8571 22.3963C42.875 21.6159 42.1384 20.5768 41.6693 19.3053C41.1914 18.0207 40.9503 16.609 40.9503 15.1051C40.9503 13.6013 41.1914 12.1852 41.6693 10.8918C42.1428 9.61157 42.8794 8.55933 43.8615 7.77015C44.8348 6.98974 46.0975 6.59077 47.6145 6.59077C49.1314 6.59077 50.3941 6.98535 51.3674 7.77015C52.3495 8.55933 53.0861 9.60718 53.5596 10.8918C54.0375 12.1852 54.2786 13.6057 54.2786 15.1051C54.2786 16.6046 54.0375 18.0207 53.5596 19.3053H53.5508Z" fill="#FFEDDF"/>
<path d="M53.1694 75.5126C51.5823 74.5086 49.7102 74 47.6101 74C45.51 74 43.6379 74.5086 42.0508 75.5126C40.4636 76.5166 39.2141 77.9415 38.3284 79.7522C37.4472 81.5586 37 83.6938 37 86.1051C37 88.5165 37.4472 90.621 38.3284 92.4142C39.2141 94.2161 40.468 95.6367 42.0508 96.6407C43.6379 97.6447 45.51 98.1533 47.6101 98.1533C49.7102 98.1533 51.5823 97.6447 53.1694 96.6407C54.7565 95.6367 56.0061 94.2161 56.8917 92.4142C57.773 90.621 58.2202 88.499 58.2202 86.1051C58.2202 83.7113 57.773 81.5542 56.8917 79.7522C56.0061 77.9415 54.7522 76.5166 53.1694 75.5126ZM53.5508 90.3053C53.0773 91.5768 52.3408 92.6159 51.3631 93.3963C50.3897 94.1679 49.1271 94.5625 47.6101 94.5625C46.0931 94.5625 44.8304 94.1723 43.8571 93.3963C42.875 92.6159 42.1384 91.5768 41.6693 90.3053C41.1914 89.0207 40.9503 87.609 40.9503 86.1051C40.9503 84.6013 41.1914 83.1852 41.6693 81.8918C42.1428 80.6116 42.8794 79.5593 43.8615 78.7701C44.8348 77.9897 46.0975 77.5908 47.6145 77.5908C49.1314 77.5908 50.3941 77.9854 51.3674 78.7701C52.3495 79.5593 53.0861 80.6072 53.5596 81.8918C54.0375 83.1852 54.2786 84.6057 54.2786 86.1051C54.2786 87.6046 54.0375 89.0207 53.5596 90.3053H53.5508Z" fill="#FFEDDF"/>
<rect x="3.125" y="3.125" width="89.75" height="95.75" stroke="black" stroke-width="0.25" stroke-dasharray="1 1"/>
<path d="M93 27H3" stroke="black" stroke-width="0.25" stroke-dasharray="1 1"/>
<path d="M93 39H3" stroke="black" stroke-width="0.25" stroke-dasharray="1 1"/>
<path d="M93 62H3" stroke="black" stroke-width="0.25" stroke-dasharray="1 1"/>
<path d="M24.2202 3.00006L24.2202 98.533" stroke="black" stroke-width="0.25" stroke-dasharray="1 1"/>
<path d="M72 3L72 99" stroke="black" stroke-width="0.25" stroke-dasharray="1 1"/>
<path d="M93 74H3" stroke="black" stroke-width="0.25" stroke-dasharray="1 1"/>
</svg>
